<svg xmlns="http://www.w3.org/2000/svg" width="983" height="983" viewBox="0 0 737.3 737.3"><path fill="#fff" fill-rule="evenodd" d="M101.5 447.1h535.7v134H101.5z"/><path fill="#478cbf" fill-rule="evenodd" d="m108.5 523.7 86.4-15.4 2.4 40.7c-.3 8.8 5.5 10.7 12.8 11l95.5-13.5c12.5.5 14-3.4 15.2-7.6l5.4-39.6 84.6-.3 5.5 38.7c.3 9 6.8 10.1 14.6 9.7l95 12c10.7.2 15-4.4 14.1-13l.7-38.4 89 16.5-2.2 14.4c-46 94.6-137.3 106-265.7 111.3-119.3-5.8-207-18.4-251.6-113.4Z"/><path fill="#478cbf" fill-rule="evenodd" stroke="#478cbf" stroke-linecap="square" stroke-linejoin="bevel" stroke-width=".7" d="m108.4 503.1.7-187.7C229 92.2 510 86.2 628.6 314.8v188.7l-90.8-15.3c-13.6-1-15.8 5.9-16.2 14l-2.8 37.6-83-13.8-4.9-36.4c-1-8.7-5.8-12.8-14-11.3l-95.2-.2c-12.6-1-13.3 5.2-15.2 10.8l-5.2 36.3-82.6 14.8-3-39.8c-1-10-6-13.4-15.2-13Z"/><ellipse cx="58" cy="57.6" fill="#fff" fill-rule="evenodd" rx="58" ry="57.6" transform="translate(173.5 319.7)"/><ellipse cx="37.8" cy="37.4" fill-rule="evenodd" rx="37.8" ry="37.4" transform="translate(199.4 344.2)"/><path fill="#478cbf" fill-rule="evenodd" d="M293.4 384.8c-51 .8-56.1-53.2-119.2-38.8l1.5-39.3 126.7 2.2-9 76"/><rect width="37.6" height="85.5" fill="#fff" fill-rule="evenodd" rx="17.8" ry="17.8" transform="translate(350.1 353.7)"/><ellipse cx="58" cy="57.6" fill="#fff" fill-rule="evenodd" rx="58" ry="57.6" transform="matrix(-1 0 0 1 562.1 318)"/><ellipse cx="37.8" cy="37.4" fill-rule="evenodd" rx="37.8" ry="37.4" transform="matrix(-1 0 0 1 536.4 342.7)"/><path fill="#478cbf" fill-rule="evenodd" d="M443.1 383.7c50.5.8 55.7-53.6 118.3-39.2L560 305l-125.8 2 8.9 76.6"/><path fill="#3b2300" fill-rule="evenodd" d="M75.3 307.7c72.2-270 508-272.7 585 .5l37.2 230.7c5.7 30.4-78.5 118.6-154.8 122.7-2.6-60.1-2.3-54.4-4.3-107.6 38.2-22.9 38.2-23.2 70.9-65.3-.8-52.4-10.2-97.8-21.6-184.3-83 15-336.6 30.3-437.4 2.7-8.8 79.2-20.2 127.7-19.6 182.7 30.2 37 30.7 37.2 66.7 62-3.5 56.2-2.1 56-4.4 109.8-66-.7-162-97-150.7-122"/><path fill="#3b2300" fill-rule="evenodd" d="M77.6 311a779.5 779.5 0 0 1-42.2-61.3 391 391 0 0 1 59-77.6A887.8 887.8 0 0 1 157 207L74.9 307.4m506-99.7a551.4 551.4 0 0 1 63.3-36c21.1 23 41.3 49 57.6 77.8l-41.6 60.8-77.7-103.7"/><path fill-rule="evenodd" d="m83.5 280-15.1-20c8.3-19 17.5-37.8 35.3-54.8l20.9 9.4a300.3 300.3 0 0 0-40.4 64.8m528.5-65.6L635 206a230 230 0 0 1 31.7 48.3L652.3 280a478 478 0 0 0-41-66.3"/><path fill="#8f6f23" fill-rule="evenodd" d="M193 663.1a2103 2103 0 0 1 5.3-111.3c-26.9-20.5-47.5-36.1-68-62.8 5.3-59.9 9.6-97.4 21-181.7l-25.3-5.6a2306.2 2306.2 0 0 0-24.5 200.1c25.1 27.7 46 46.5 69.1 62.7-2.6 29-4.5 60.5-7.2 91.4a129 129 0 0 0 29.6 7.2m349.4-.3a2003 2003 0 0 0-5.6-112.1c28.5-20.6 50.5-36.4 72.3-63.2-5.6-60.3-10.2-98-22.4-183l27-5.6a2202 2202 0 0 1 26 201.5 419.9 419.9 0 0 1-73.5 63c2.8 29.4 4.8 61 7.6 92.1a143.8 143.8 0 0 1-31.4 7.3"/><path fill="#3b2300" fill-rule="evenodd" d="M217.4 159.8c-2.3-25.3-4-50.3-5-74.8a380.6 380.6 0 0 1 87.8-28.8c10.4 19.6 19.4 32.7 32.4 64.8l-115.2 38.8M403 121.6c10-22.7 21-45 32.4-66.2a392 392 0 0 1 91 31.7l-7.3 73.3-114.5-38"/><path fill-rule="evenodd" d="m234 128.9-1.4-25.2A198 198 0 0 1 292.3 85l13 21.6a388.2 388.2 0 0 0-71.3 22.3m197.3-20.2 13-24.5c20.5 3.3 40.3 9 59 18l-2.9 26a331.3 331.3 0 0 0-71.3-19.5M94.3 585.4l15.1-42.5 11.6 11.5-16.6 41.8-10-10.8m21.5 26.6 17.3-43.2 11.5 10-18.7 39.7-10-6.5m525.5-29.2-15.1-42.4-11.5 11.5 16.5 41.7 10.1-10.8M620 609.5l-17.3-43.2-11.5 10 18.7 39.7 10.1-6.5"/><path fill="#8f6f23" fill-rule="evenodd" d="M186.8 197.6c124.8 35.6 246.1 32.6 365 .6-50 23.2-122.8 48.2-185.7 48.6-63.5-.6-124.3-19.9-179.3-49.2Z"/></svg>