<svg xmlns="http://www.w3.org/2000/svg" xmlns:krita="http://krita.org/namespaces/svg/krita" width="983.04" height="983.04" viewBox="0 0 737.28 737.28"><defs><linearGradient id="a" gradientUnits="objectBoundingBox" x1=".5" y1=".032" x2=".5" y2=".976" spreadMethod="pad"><stop stop-color="#f8e7d5" offset=".599"/><stop stop-color="#ffda5a" offset="1"/></linearGradient><linearGradient id="b" gradientUnits="objectBoundingBox" x1=".489" y1=".014" x2=".501" y2=".981" spreadMethod="pad"><stop stop-color="#f1e2c5" offset=".493"/><stop stop-color="#e0c054" offset="1"/></linearGradient><linearGradient id="c" gradientUnits="objectBoundingBox" x1=".5" y1=".032" x2=".5" y2=".976" spreadMethod="pad"><stop stop-color="#f8e7d5" offset=".599"/><stop stop-color="#ffda5a" offset="1"/></linearGradient><linearGradient id="d" gradientUnits="objectBoundingBox" x1=".489" y1=".014" x2=".501" y2=".981" spreadMethod="pad"><stop stop-color="#f1e2c5" offset=".493"/><stop stop-color="#e0c054" offset="1"/></linearGradient><linearGradient id="e" gradientUnits="objectBoundingBox" x1=".5" y1=".032" x2=".5" y2=".976" spreadMethod="pad"><stop stop-color="#f8e7d5" offset=".599"/><stop stop-color="#ffda5a" offset="1"/></linearGradient><linearGradient id="f" gradientUnits="objectBoundingBox" x1=".485" y1="0" x2=".515" y2=".971" spreadMethod="pad"><stop stop-color="#f1e2c5" offset=".493"/><stop stop-color="#e0c054" offset="1"/></linearGradient><linearGradient id="g" gradientUnits="objectBoundingBox" x1=".5" y1=".032" x2=".5" y2=".976" spreadMethod="pad"><stop stop-color="#f8e7d5" offset=".599"/><stop stop-color="#ffda5a" offset="1"/></linearGradient><linearGradient id="h" gradientUnits="objectBoundingBox" x1=".489" y1=".014" x2=".501" y2=".981" spreadMethod="pad"><stop stop-color="#f1e2c5" offset=".493"/><stop stop-color="#e0c054" offset="1"/></linearGradient><linearGradient id="i" gradientUnits="objectBoundingBox" x1=".5" y1=".032" x2=".5" y2=".976" spreadMethod="pad"><stop stop-color="#f8e7d5" offset=".599"/><stop stop-color="#ffda5a" offset="1"/></linearGradient><linearGradient id="j" gradientUnits="objectBoundingBox" x1=".489" y1=".014" x2=".501" y2=".981" spreadMethod="pad"><stop stop-color="#f1e2c5" offset=".493"/><stop stop-color="#e0c054" offset="1"/></linearGradient><linearGradient id="k" gradientUnits="objectBoundingBox" x1=".5" y1=".032" x2=".5" y2=".976" spreadMethod="pad"><stop stop-color="#f8e7d5" offset=".599"/><stop stop-color="#ffda5a" offset="1"/></linearGradient><linearGradient id="l" gradientUnits="objectBoundingBox" x1=".489" y1=".014" x2=".501" y2=".981" spreadMethod="pad"><stop stop-color="#f1e2c5" offset=".493"/><stop stop-color="#e0c054" offset="1"/></linearGradient><linearGradient id="m" gradientUnits="objectBoundingBox" x1=".5" y1=".032" x2=".5" y2=".976" spreadMethod="pad"><stop stop-color="#f8e7d5" offset=".599"/><stop stop-color="#ffda5a" offset="1"/></linearGradient><linearGradient id="n" gradientUnits="objectBoundingBox" x1=".489" y1=".014" x2=".501" y2=".981" spreadMethod="pad"><stop stop-color="#f1e2c5" offset=".493"/><stop stop-color="#e0c054" offset="1"/></linearGradient><linearGradient id="o" gradientUnits="objectBoundingBox" x1=".5" y1=".032" x2=".5" y2=".976" spreadMethod="pad"><stop stop-color="#f8e7d5" offset=".599"/><stop stop-color="#ffda5a" offset="1"/></linearGradient><linearGradient id="p" gradientUnits="objectBoundingBox" x1=".489" y1=".014" x2=".501" y2=".981" spreadMethod="pad"><stop stop-color="#f1e2c5" offset=".493"/><stop stop-color="#e0c054" offset="1"/></linearGradient><linearGradient id="q" gradientUnits="objectBoundingBox" x1=".5" y1=".032" x2=".5" y2=".976" spreadMethod="pad"><stop stop-color="#f8e7d5" offset=".599"/><stop stop-color="#ffda5a" offset="1"/></linearGradient><linearGradient id="r" gradientUnits="objectBoundingBox" x1=".489" y1=".014" x2=".501" y2=".981" spreadMethod="pad"><stop stop-color="#f1e2c5" offset=".493"/><stop stop-color="#e0c054" offset="1"/></linearGradient></defs><path fill-rule="evenodd" stroke="#000" stroke-width="5.89" stroke-linecap="square" stroke-linejoin="bevel" d="m58.86 561.6 1.62-253.8c157.226-278.54 464.105-274.872 613.44 1.08l5.4 247.32C647.115 666.134 500.2 700.424 367.2 699.84c-135.369.357-272.949-29.61-308.34-138.24Z"/><path fill-rule="evenodd" stroke="#000" stroke-width="5.89" stroke-linecap="square" stroke-linejoin="bevel" d="M60.48 311.04 21.6 247.32l68.04-87.48 69.12 32.4ZM205.2 158.76l-7.56-82.08 108-35.64 38.88 74.52ZM391.5 111.78l39.42-69.66 110.16 35.64-8.64 79.92ZM575.64 192.78l69.12-38.34 70.2 95.04-45.36 70.2Z"/><path fill="#fff" fill-rule="evenodd" d="M75.33 307.71c139.8-252.12 436.47-259.35 584.91.45l1.26 41.76c-29.612 2.82-68.673 6.884-98.285 9.852-.808-6.991-4.407-12.797-10.075-12.192-188.818-12.048-186.958-11.527-371.88 1.26-8.815-.724-8.652 5.12-8.827 11.147-26.225-2.156-70.068-5.751-96.293-7.907M74.88 369.36l97.2 9.36 2.88 187.2c.356 5.785 4.165 9.14 9.36 11.52l119.16 8.82 129.6-1.08 117-7.02c6.326-2.136 10.231-5.786 10.8-11.52l3.6-185.76 96.48-10.08v170.64c-13.546 112.982-168.562 140.56-288 144.72-99.988-6.211-268.889-13.075-297.36-138.96l-.72-39.6"/><path fill="#fff" fill-rule="evenodd" d="M77.58 310.95c-15.34-20.4-29.742-40.8-42.21-61.2 17.076-27.892 35.45-54.775 58.95-77.67 21.773 10.747 42.287 22.753 62.64 34.92L74.88 307.44M217.44 159.84c-2.345-25.292-4.133-50.307-5.04-74.88 28.155-13.35 57.526-22.647 87.84-28.8 10.385 19.627 19.392 32.711 32.4 64.8l-115.2 38.88M403.02 121.59c9.998-22.672 20.905-45.006 32.4-66.24 31.726 7.738 62.743 16.894 90.9 31.77l-7.2 73.26-114.48-37.98M580.86 207.72c20.436-13.367 41.484-25.511 63.36-36 21.124 22.915 41.323 48.917 57.6 77.76l-41.58 60.84-77.76-103.68"/><path fill="#7f0000" fill-rule="evenodd" stroke="#7f0000" stroke-width=".72" stroke-linecap="square" stroke-linejoin="bevel" d="M320.22 368.46c8.669-.422 14.73-9.3 17.64-21.24 22.458 4.21 45.405 5.49 69.3 1.08 3.398 13.965 10.473 20.574 19.62 23.04 55.554-.612 108.298 8.277 160.92-13.32-28.791-14.303-27.547-35.918-46.62-58.14-23.369-15.955-34.975-6.913-47.16.9-27.278-12.846-29.41 1.25-37.8 8.64-34.164-12.441-37.761 2.288-47.34 11.7-22.807 8.613-47.934 7.944-75.06-.72-12.009-10.405-21.133-25.618-49.68-8.46-12.464-18.074-25.879-17.136-39.78-6.48-14.032-19.091-39.353-14.681-54.36 1.26-16.177 10.795-17.951 41.765-40.14 52.74 37.535 11.514 94.355 14.514 170.46 9ZM172.53 378.54c-12.401 62.835-20.595 119.47-8.37 186.3 1.968 18.74 14.042 21.537 24.3 26.46 43.761 7.046 69.7 6.311 106.38 4.86 16.218 15.231 31.661 18.066 46.44 10.26 17.797 15.242 35.303 14.992 54.54 0 12.131 2.478 23.078 6.31 49.14-13.5 33.226 5.293 58.81 3.65 106.38-5.4 9.524-1.287 19.647-13.36 17.82-21.6 12.1-98.498 6.654-111.261-4.86-185.76-3.159 56.272-.719 99.393-10.26 172.26-.233 7.154-3.374 13.725-10.8 19.44-28.934 3.47-52.736 8.427-95.58 2.16-2.988-14.257-8.78-20.097-14.58-25.92l-129.06 3.78c-6.025 7.672-13.283 14.358-12.42 27.54-32.22 1.398-64.44 1.528-96.66-7.02-6.546.512-15.749-10.802-15.12-18.9-8.717-60.66-5.161-114.3-7.29-174.96Z"/><path fill="#7f0000" fill-rule="evenodd" d="M203.175 593.255c3.953 2.613 16.14-.86 17.57 8.006-3.262 32.57 37.359-2.419 43.841 13.956 9.985 8.168-7.534 18.337-1.719 29.1 4.014 9.83 9.846 1.79 11.66 6.958 6.447 18.375 1.276 17.539-.907 26.975 24.42 3.291 2.746 1.353 26.095 2.799.519-.243 6.867-58.291 27.58-56.47 6.818 10.265-1.041 12.185 3.414 21.574 4.59 9.264 13.684 4.613 10.49 21.671-1.66 4.28-4.681 7.268-4.161 16.602 5.665.798 40.113 2.973 45.23 1.401-1.847-7.528-8.465-8.969.85-22.254 20.922-6.553 24.185 10.684 25.836 20.917 6.968-.55 24.41-1.222 32.204-2.969-1.718-20.774-75.013-41.762-21.156-65.47 25.133-11.064 19.498 11.376 25.936 24.777 4.188 8.715 14.13 1.257 17.739 11.533 1.87 5.325-5.844 23.603-.644 25.797 14.728-.09 42.002-7.991 49.989-9.162 12.369-12.176-54.673-50.304-37.827-62.846 14.1-10.498 36.969 19.59 40.34-6.96 1.28-10.087 13.15-6.844 20.939-12.076"/><path transform="rotate(2.87 -7804.78 6460.606)" fill="url(#a)" fill-rule="evenodd" stroke="url(#b)" stroke-width="7.2" stroke-linecap="square" stroke-linejoin="bevel" krita:marker-fill-method="auto" d="M25.344 0c1.138 30.08 4.457 129.736 24.778 168.739-8.223 25.393-37.453 33.083-48.713-.112C-2.54 141.269.722 92.561 25.344 0Z"/><path transform="scale(-1 1) rotate(3.858 -6096.523 -6072.903)" fill="url(#c)" fill-rule="evenodd" stroke="url(#d)" stroke-width="7.2" stroke-linecap="square" stroke-linejoin="bevel" krita:marker-fill-method="auto" d="M25.872 0c1.162 30.08 4.55 129.736 25.294 168.739-8.394 25.393-38.233 33.083-49.728-.112C-2.592 141.269.738 92.561 25.872 0Z"/><path transform="translate(342.221 394.452)" fill="url(#e)" fill-rule="evenodd" stroke="url(#f)" stroke-width="7.2" stroke-linecap="square" stroke-linejoin="bevel" krita:marker-fill-method="auto" d="M26.247 0c8.098 30.325 26.02 132.932 27.172 179.885-6.857 29.771-44.85 36.349-53.419-.119C.677 142.86 9.426 82.938 26.247 0Z"/><path transform="rotate(168.578 267.131 261.883)" fill="url(#g)" fill-rule="evenodd" stroke="url(#h)" stroke-width="7.2" stroke-linecap="square" stroke-linejoin="bevel" krita:marker-fill-method="auto" d="M31.118 0c.86 20.408-6.7 49.776 8.007 102.971 7.654 26.453 14.874 19.353 13.806 44.517-5.693 29.459-35.762 24.763-46.566-3.846C-1.83 117.921-8.943 74.946 31.118 0Z"/><path transform="rotate(172.885 254.061 259.698)" fill="url(#i)" fill-rule="evenodd" stroke="url(#j)" stroke-width="7.2" stroke-linecap="square" stroke-linejoin="bevel" krita:marker-fill-method="auto" d="M33.652 0c.93 21.641-7.245 52.785 8.659 109.195 8.277 28.053 16.085 20.523 14.93 47.208-6.157 31.24-38.674 26.26-50.358-4.078C-1.979 125.049-9.67 79.475 33.652 0Z"/><path transform="rotate(174.148 235.88 268.273)" fill="url(#k)" fill-rule="evenodd" stroke="url(#l)" stroke-width="7.2" stroke-linecap="square" stroke-linejoin="bevel" krita:marker-fill-method="auto" d="M35.727 0c.987 23.68-7.692 57.756 9.193 119.48 8.787 30.696 17.077 22.456 15.851 51.655-6.537 34.183-41.06 28.733-53.464-4.462C-2.1 136.828-10.268 86.962 35.727 0Z"/><path transform="matrix(1.0381 .19803 .20973 -.9802 154.44 465.805)" fill="url(#m)" fill-rule="evenodd" stroke="url(#n)" stroke-width="7.2" stroke-linecap="square" stroke-linejoin="bevel" krita:marker-fill-method="auto" d="M31.118 0c.86 20.408-6.7 49.776 8.007 102.971 7.654 26.453 14.874 19.353 13.806 44.517-5.693 29.459-35.762 24.763-46.566-3.846C-1.83 117.921-8.943 74.946 31.118 0Z"/><path transform="matrix(1.05092 .12386 .13117 -.9923 199.453 486.055)" fill="url(#o)" fill-rule="evenodd" stroke="url(#p)" stroke-width="7.2" stroke-linecap="square" stroke-linejoin="bevel" krita:marker-fill-method="auto" d="M33.652 0c.93 21.641-7.245 52.785 8.659 109.195 8.277 28.053 16.085 20.523 14.93 47.208-6.157 31.24-38.674 26.26-50.358-4.078C-1.979 125.049-9.67 79.475 33.652 0Z"/><path transform="matrix(1.05355 .10196 .10798 -.99479 242.29 511.224)" fill="url(#q)" fill-rule="evenodd" stroke="url(#r)" stroke-width="7.2" stroke-linecap="square" stroke-linejoin="bevel" krita:marker-fill-method="auto" d="M35.727 0c.987 23.68-7.692 57.756 9.193 119.48 8.787 30.696 17.077 22.456 15.851 51.655-6.537 34.183-41.06 28.733-53.464-4.462C-2.1 136.828-10.268 86.962 35.727 0Z"/></svg>